<?xml version="1.0" encoding="utf-8"?>
<!-- Generator: Adobe Illustrator 16.0.4, SVG Export Plug-In . SVG Version: 6.00 Build 0)  -->
<!DOCTYPE svg PUBLIC "-//W3C//DTD SVG 1.1//EN" "http://www.w3.org/Graphics/SVG/1.1/DTD/svg11.dtd">
<svg version="1.1" id="Layer_1" xmlns="http://www.w3.org/2000/svg" xmlns:xlink="http://www.w3.org/1999/xlink" x="0px" y="0px"
	 width="2970.217px" height="1075.938px" viewBox="59.687 734.141 2970.217 1075.938"
	 enable-background="new 59.687 734.141 2970.217 1075.938" xml:space="preserve">
<g>
	<polyline fill="#FFFFFF" points="59.687,1349.86 219.899,1342.007 367.547,1349.86 367.547,1657.72 59.687,1349.86 	"/>
	<polyline fill="#D3D2D2" points="367.547,1349.86 59.687,1349.86 59.687,1042 217.544,1192.004 367.547,1349.86 	"/>
	<polyline fill="#A8A5A6" points="59.687,1042 235.607,1034.146 367.547,1042 375.4,1185.721 367.547,1349.86 59.687,1042 	"/>
	<polyline fill="#7C7A7A" points="367.547,1349.86 367.547,1042 498.701,1034.146 675.406,1042 367.547,1349.86 	"/>
	<polyline fill="#231F20" points="367.547,734.141 375.4,902.207 367.547,1042 59.687,1042 367.547,734.141 	"/>
	<polyline fill="#504D4E" points="675.406,1042 367.547,1042 367.547,734.141 675.406,1042 	"/>
	<path fill="#EE1E59" d="M59.687,1349.86l307.86,307.859l0,0L59.687,1349.86 M367.547,734.141L59.687,1042L367.547,734.141
		L367.547,734.141"/>
	<polyline fill="#EE1E59" points="367.547,1349.86 59.687,1349.86 367.547,1657.72 367.547,1349.86 	"/>
	<polyline fill="#CF2555" points="59.687,1042 59.687,1349.86 367.547,1349.86 59.687,1042 	"/>
	<polyline fill="#AC2D50" points="367.547,1042 59.687,1042 367.547,1349.86 367.547,1349.86 367.547,1042 	"/>
	<polyline fill="#842A43" points="675.406,1042 367.547,1042 367.547,1349.86 675.406,1042 	"/>
	<polyline fill="#280006" points="367.547,734.141 59.687,1042 367.547,1042 367.547,734.141 367.547,734.141 	"/>
	<polyline fill="#561B2D" points="367.547,734.141 367.547,1042 675.406,1042 367.547,734.141 	"/>
	<path fill="#010101" d="M825.409,1195.931c84.818,0,117.019,13.351,141.364,33.77c36.126,29.844,54.189,75.395,54.189,121.73
		s-19.634,95.813-48.691,120.945c-31.415,26.702-62.829,40.053-134.297,40.053h-46.336v143.721H675.406v-460.219H825.409z
		 M792.424,1408.762h43.195c10.995,0,29.844,0,45.551-7.068s28.272-21.204,28.272-48.691c0-27.488-13.351-40.054-29.058-47.122
		c-16.493-7.068-35.342-7.068-48.692-7.068H793.21v109.95H792.424z"/>
	<path fill="#010101" d="M1024.89,1482.585c0-84.033,60.473-182.987,186.13-182.987c125.656,0,186.129,98.954,186.129,182.987
		c0,84.819-60.473,183.773-186.129,183.773C1085.362,1666.358,1024.89,1568.189,1024.89,1482.585L1024.89,1482.585z
		 M1128.557,1483.371c0,49.477,37.697,86.389,82.463,86.389c44.765,0,82.462-36.912,82.462-87.175s-37.697-87.174-82.462-87.174
		C1166.254,1395.411,1128.557,1432.322,1128.557,1483.371L1128.557,1483.371z"/>
	<rect x="1430.134" y="1195.931" fill="#010101" width="102.882" height="460.219"/>
	<polygon fill="#010101" points="1686.945,1638.871 1558.932,1311.378 1668.882,1311.378 1739.563,1511.644 1804.748,1311.378 
		1914.698,1311.378 1741.92,1770.811 1631.97,1770.811 	"/>
	<path fill="#010101" d="M2284.601,1614.525c0,51.833-3.927,84.818-20.419,113.876c-26.702,43.195-89.531,81.678-174.35,81.678
		c-120.159,0-165.71-72.253-171.992-120.945h119.374c7.067,16.493,21.204,25.132,32.985,29.844
		c12.565,4.712,24.346,4.712,27.487,4.712c39.268,0,84.033-24.346,84.033-84.033c0-7.068,0-13.351,0-20.419
		c-11.78,19.634-41.624,49.478-95.813,49.478c-93.458,0-174.35-70.682-174.35-181.417c0-117.804,84.818-186.13,174.35-186.13
		c38.482,0,76.18,13.352,96.599,43.194c0-10.994,0-21.989,0-32.199h102.882v302.362H2284.601z M2014.438,1482.585
		c0,54.976,40.054,87.96,82.462,87.96c25.132,0,45.551-8.639,60.473-23.561c14.137-14.922,22.775-35.341,24.347-59.687
		c0-25.917-7.068-48.692-21.99-64.399c-13.351-16.492-34.556-26.702-62.043-26.702
		C2053.706,1396.196,2014.438,1431.537,2014.438,1482.585L2014.438,1482.585z"/>
	<path fill="#010101" d="M2317.586,1482.585c0-84.033,60.473-182.987,186.129-182.987c125.657,0,186.13,98.954,186.13,182.987
		c0,84.819-60.473,183.773-186.13,183.773C2377.273,1666.358,2317.586,1568.189,2317.586,1482.585L2317.586,1482.585z
		 M2420.468,1483.371c0,49.477,37.696,86.389,82.462,86.389s82.463-36.912,82.463-87.175s-37.697-87.174-82.463-87.174
		S2420.468,1432.322,2420.468,1483.371L2420.468,1483.371z"/>
	<path fill="#010101" d="M2710.264,1311.378h96.599c0,11.78,0,24.346,0,36.911c11.78-16.492,33.771-48.691,95.028-48.691
		c116.232,0,128.014,94.242,128.014,141.363v215.188h-102.883v-188.486c0-37.696-7.854-71.467-54.189-71.467
		c-51.048,0-58.901,36.911-58.901,72.253v187.7h-102.882v-344.771H2710.264z"/>
</g>
</svg>
